<?xml version="1.0" encoding="utf-8"?>
<!-- Generator: Adobe Illustrator 22.1.0, SVG Export Plug-In . SVG Version: 6.00 Build 0)  -->
<svg version="1.1" id="Capa_1" xmlns="http://www.w3.org/2000/svg" xmlns:xlink="http://www.w3.org/1999/xlink" x="0px" y="0px"
	 viewBox="0 0 897.6 496.6" style="enable-background:new 0 0 897.6 496.6;" xml:space="preserve">
<style type="text/css">
	.st0{fill:#FFFFFF;}
</style>
<path class="st0" d="M596.3,249.3c0-9.8-0.6-19.6,0.6-29.3c1.1-8.6,4.8-16.2,11.2-22.4c7.8-7.5,17.2-10.6,27.8-12
	c9.2-1.2,17.9,0.5,26.5,2.3c3.6,0.7,6.7,4.1,9.8,6.7c1.8,1.5,3.1,3.6,4.5,5.5c3,4,3.2,4.2,6,0.2c6.4-9.2,15.8-12.5,26.2-14.3
	c8.8-1.5,17.5-1.3,26.1,1.3c13.5,4.2,21.3,13.4,24.3,26.9c1.9,8.6,1.7,17.3,1.7,26c0,12.7-0.1,25.4,0,38.1c0,2.8-0.7,3.9-3.6,3.7
	c-3.9-0.2-7.9-0.1-11.8,0c-2.5,0.1-3.3-0.9-3.2-3.4c0.1-15.1,0.1-30.3,0.1-45.4c0-4.6-0.2-9.1-1.3-13.6c-2-8.7-9-15.4-17.9-16.4
	c-5.8-0.6-11.6-0.6-17.4,0.7c-9.3,2-16.7,11.3-17,21c-0.5,17.8-0.2,35.6-0.2,53.4c0,2.8-0.8,3.6-3.4,3.5c-4.1-0.1-8.2-0.2-12.2,0.1
	c-3.1,0.2-3.9-0.9-3.9-3.9c0.2-15.4,0.1-30.8,0.1-46.1c0-5.4-0.5-10.8-2.3-15.9c-2.5-7-7.8-10.5-14.8-12c-5.5-1.2-11-1.3-16.6-0.8
	c-12.4,1.1-19,9.6-19.4,21.3c-0.6,18-0.3,36.1-0.2,54.2c0,2.7-1,3.2-3.3,3.2c-4.5-0.1-8.9-0.1-13.3,0.1c-2.4,0.1-3.1-0.7-3.1-3
	C596.3,269.1,596.3,259.2,596.3,249.3L596.3,249.3z"/>
<path class="st0" d="M838.8,220.2c8.8,0,17.5,0,26.3,0c2.9,0,4.4-0.4,3.4-4.2c-2.8-10.6-6.8-14.1-17.8-14.2
	c-10.7-0.1-21.4-0.1-32,0.1c-2.7,0-3.6-0.8-3.5-3.5c0.2-3.8,0.2-7.6,0.1-11.4c-0.1-2.1,0.5-2.9,2.8-2.9c12.8,0.1,25.7-0.2,38.5,0.3
	c9.1,0.4,17.8,2.8,24,10.3c5.5,6.5,7.8,14.4,8.1,22.6c0.4,9.6,0.3,19.3,0.1,29c-0.3,12.7-4,23.8-15.5,31c-4.8,3-10,4.7-15.8,4.7
	c-16.4-0.1-32.8,0.2-49.2-0.2c-10.1-0.2-18-5-22.3-14.3c-5.3-11.5-5.8-23.3,0.6-34.5c4.3-7.6,11.7-10.9,20.2-12
	C817.5,219.5,828.1,220.8,838.8,220.2L838.8,220.2z M839.3,237L839.3,237c-8.8-0.1-17.5-0.2-26.3-0.1c-7.8,0.2-13.3,5.5-13.5,12.5
	c-0.2,8.1,4.7,14.6,11.9,14.9c14.6,0.6,29.2,0.5,43.8,0c7.3-0.3,11.7-4.4,13.4-11.4c0.9-3.9,0-7.8,0.4-11.7c0.3-3.2-1-4.3-4.1-4.2
	C856.3,237.1,847.8,237,839.3,237L839.3,237z"/>
<path class="st0" d="M432.8,281.9c-8.1,0-16.3,0.5-24.4-0.1c-8.4-0.6-15.9-3.9-20.9-11.3c-6.7-10-7.4-21.1-4.2-32.2
	c2.9-9.9,14.5-16.9,24.8-17.6c19-1.3,38-0.1,57.1-0.6c2.7-0.1,3.6-0.8,3.4-3.5c-0.8-8.4-5.2-14.6-15.4-14.8
	c-11.6-0.3-23.1-0.1-34.7,0c-2.8,0-3.9-0.8-3.7-3.7c0.2-3.8,0.1-7.6,0-11.4c-0.1-2,0.5-3,2.5-2.9c16.2,0.8,32.5-1.9,48.5,2
	c11.2,2.8,18.4,10.4,21,21.5c3.3,14.4,2,29,1.1,43.6c-0.4,6-2,11.4-5.2,16.4c-6.2,9.6-15.3,14.1-26.4,14.5
	C448.3,282.2,440.6,282,432.8,281.9L432.8,281.9z M438.4,236.9C438.4,236.9,438.4,236.8,438.4,236.9c-8.6-0.1-17.3-0.1-25.9-0.1
	c-6.5,0-12.6,4.3-12.8,12.6c-0.2,10.2,4.3,14.5,12.2,14.9c14.1,0.6,28.2,0.5,42.3,0c7.3-0.3,15.1-5,14.5-15.1
	c-0.2-2.8-0.1-5.6,0.1-8.4c0.3-3-0.7-4.1-3.8-4C456.1,237,447.2,236.8,438.4,236.9L438.4,236.9z"/>
<path class="st0" d="M855.4,380.9c-7.5,0-12.9,0.1-18.4,0c-8.4-0.1-14.1-4.5-17.3-12c-3.1-7.2-1.8-14.2,3.1-20
	c2.5-2.9,1.9-4.4-0.1-6.6c-2.7-3-3.8-6.4-2.1-10.4c0.3-0.6,0.4-1.1,0.9-1.5c3.5-2.5,2.8-5,0.7-8.2c-6.4-9.5,0.1-24.7,11.7-27.4
	c2-0.5,4-1,6-0.9c9.6,0.3,19.2-1,28.8,0.8c3.7,0.7,6.9,2.1,9.3,4.7c2.7,2.9,4,1.7,5.3-1c1.6-3.2,4.3-3.9,7.6-3.7
	c3.1,0.2,4.8,2,5.9,4.6c2,4.5-0.6,8.7-5.5,9.2c-2.5,0.2-5.7-1.3-7.1,0.8c-1.1,1.6-0.1,4.7-0.2,7.1c-0.4,7.9-9.4,16.3-18.2,16.5
	c-9.8,0.2-19.6,0-29.3,0c-1.2,0-3.2-1-3.4,1.1c-0.1,1.4,1.1,2.5,3,2.8c7.8,1.1,15.6,2.1,23.3,3.7c5.9,1.3,11.9,1.3,17.7,3
	c6.7,2,13.2,9.3,13.1,18.5c-0.1,8.7-6,16.5-14,18.3C868.7,381.8,861,380.5,855.4,380.9L855.4,380.9z M854.1,369.4
	c5.3-0.2,10.4,0.5,15.5-0.3c4.4-0.8,7.4-4,7.5-7.8c0.2-4.1-1.8-6.7-6.5-8.1c-1.9-0.6-4-0.9-6-1.1c-7.1-0.8-14.1-1.5-21.2-2.4
	c-4.3-0.5-8,1.7-10.9,6.8c-2.1,3.8-1.8,6.4,1.3,9.9c2.1,2.4,4.9,3,7.9,3.1C846,369.5,850.2,369.4,854.1,369.4L854.1,369.4z
	 M852.3,306c0,0,0,0.1,0,0.1c-3.8,0-7.6-0.2-11.4,0c-3.4,0.2-5.5,2.4-6.9,5.3c-1.2,2.6,0.6,4.6,1.9,6.6c1.4,2.3,4,2.6,6.4,2.8
	c7,0.6,14,0.6,20.9,0.2c5.8-0.3,7.8-2.5,7.8-7.9c0-4.2-2.8-6.8-8-7.1C859.4,305.8,855.9,306,852.3,306L852.3,306z"/>
<path class="st0" d="M186.8,79.9l-5.6-21.5c0,0,46.6-79.3,87.7-33.6s-15.2,218.1-25.6,227.3S287,140,265.6,46.7
	C265.6,46.7,244.1-23.2,186.8,79.9z"/>
<path class="st0" d="M256.5,186.2c0.3-2,3.3-20.5,18.4-33.5c1.6-1.4,5.1-4.2,10-6.7c8.4-4.3,17.5-6.1,27.4-6
	c14.5,0.1,29,0.1,43.5,0.1c5.3,0,5.3,0.1,5.3,5.3c0,2.6-0.1,5.3,0.1,7.9c0.1,1.5-1.1,2.8-2.5,2.9c-12.5,1.2-25.1,0.3-37.6,0.5
	c-8.5,0.1-17,0.6-24.3,5.9c-6.5,4.6-11.1,10.4-13,18.4c-1,4-2.7,7.6-1.7,12c0.6,2.8,1.9,3.1,4.1,3.1c10.4-0.1,20.9-0.1,31.3-0.1
	c13.1,0,26.2,0.1,39.3,0c3.2,0,4,1.1,3.6,4.8c0,0.4-0.1,2.8-0.1,5.3c0,2.8-0.1,5.8,0,6.4c0.4,3.7-0.4,4.7-3.4,4.7
	c-23.7-0.1-47.3,0.1-71-0.1c-3.3,0-4.4,0.8-4.3,4.2c0.2,11.2,0.1,22.4,0.1,33.6c0,4.6-0.9,9.2-0.1,13.8c0.4,2.2-0.6,3.3-2.9,3.3
	c-6.7,0-13.5,0-20.2,0c-1.6,0-2.9-0.3-2.9-2.5c0.1-16.5,0.1-33.1,0.1-49.6c0-1.7,0-1.1,0.1-4.9C256,197.7,256.1,189.1,256.5,186.2
	L256.5,186.2z"/>
<path class="st0" d="M514.5,346.7c0-8.9,0-17.8,0-26.7c0-13.6,9.8-24.4,22.8-25.8c9.1-1,18.4-1.1,27.6,0.5
	c11.1,1.8,17.4,8.5,20.1,19c2.8,10.9,2.3,21.6-5.1,30.8c-5.3,6.6-12.4,9.9-21.1,9.8c-9.1-0.2-18.3,0-27.4,0c-2.3,0-3.1,0.6-3,3
	c0.2,6.6,0.1,13.2,0.3,19.8c0.1,2.9-0.7,4.1-3.8,4.1c-10.4,0-10.4,0.1-10.4-10.4c0-8,0-16,0-24H514.5L514.5,346.7z M545.5,342
	c5,0,9.9,0.1,14.8,0c6.6-0.3,11.7-4.4,12.2-10.3c0.4-4.8,0.5-9.7-0.1-14.5c-0.6-4.6-3.2-8.1-8.1-9.5c-8.4-2.3-16.8-1.7-25.2-0.7
	c-6.2,0.7-9,4-10.1,10.2c-1.3,7.7-0.2,15.5-0.7,23.2c-0.1,2,1.5,1.7,2.7,1.7C535.8,342,540.6,342,545.5,342L545.5,342z"/>
<path class="st0" d="M564.8,203.1c-7.8,0.4-14.7-0.5-21.6,0.7c-5.5,0.9-9.5,3.4-12.9,8.1c-3,4.2-4.7,9.3-4.8,13.5
	c0,5.2,0.3,10.6,0.3,15.9c0.2,12.4,0,24.9,0.1,37.4c0,2.9-1,3.8-3.7,3.7c-4.7-0.1-9.4,0.2-14,0.3c-2.5,0.1-2.4-1.8-2.3-3.4
	c0.9-12.5,0.7-25.1,0.6-37.6c-0.1-6.8-0.7-13.7-0.2-20.4c0.7-10.3,5.4-19.5,13.7-26.1c9.1-7.3,19.9-10,31.3-10.3
	c9.8-0.2,19.6,0,29.3-0.1c2.4,0,3.4,0.8,3.3,3.3c-0.1,3.8-0.1,7.6,0,11.4c0.1,2.6-0.6,3.7-3.4,3.6
	C575.1,203,569.5,203.2,564.8,203.1L564.8,203.1z"/>
<path class="st0" d="M466.1,293.9c5.2,0,10.4-0.5,15.5,0.8c4.3,1.1,8.1,3.1,11.5,5.9c4.3,3.5,7.4,8,8.7,13.2c1,3.7,0.7,7.8,0.6,11.7
	c-0.4,9.6-3.9,17.6-12.2,23c-3.5,2.3-7.3,3.9-11.6,4.3c-8.4,0.7-17,1.1-25.3-0.3c-12.9-2-21.5-11.3-23-24.1c-1-8.3,0-16.2,5-23.3
	c5.1-7.1,12.1-10.6,20.6-11.3C459.2,293.7,462.7,293.9,466.1,293.9L466.1,293.9z M466.2,306.9c-3,0-6.1-0.1-9.1,0
	c-5.8,0.3-10.2,3.9-12,9.4c-1.3,4-0.7,8-0.6,12c0.2,7.4,5.6,13,13,13.3c6.2,0.2,12.5,0.1,18.7-0.3c7.1-0.5,11.9-6.2,11.8-13.3
	c-0.1-2.5,0-5.1,0-7.6c0.1-6.1-3.3-10.9-9.2-12.7C474.6,306.4,470.4,306.9,466.2,306.9L466.2,306.9z"/>
<path class="st0" d="M155.4,185.8c-6.8-9.4-12.9-19.2-19.9-28.3c-14-18.3-30.9-33.5-50.3-46C68.8,100.8,55.8,86.4,43.8,71
	C29.5,52.7,18.7,32.7,11.4,10.7C10.5,8,9.2,5.4,9,2.4C9,1.6,8.2,0.6,9.4,0.1c1.1-0.4,1.5,0.6,2,1.4c2.6,4.5,5.3,9,7.8,13.5
	c6.7,12.2,13.7,24.3,21.4,36c13.3,20.5,30.7,36.6,50.7,50.3c10.4,7.2,20.3,15.3,29.5,23.8c10.7,9.9,19.4,21.3,25.4,34.7
	c3.2,7,6.8,13.8,8.5,21.4C155,182.8,155.2,184.3,155.4,185.8L155.4,185.8z"/>
<path class="st0" d="M804.6,354.1c-2.9,0-5.8-0.1-8.7,0c-2.5,0.1-3.4-1-3.3-3.4c0.2-8,0.3-16,0.3-24c0-3.8,0-7.5-1.1-11.2
	c-1.8-5.8-4.4-8.2-10.3-8.6c-10.4-0.7-20.8-0.3-31.2,0c-2.5,0.1-2.1,1.6-2.1,3.1c0,13.3,0,26.6,0.2,40c0.1,3.5-1.1,4.5-4.3,4.2
	c-3.3-0.3-6.6,0.1-9.8-0.9c0-0.3-0.2-0.4-0.4-0.5c0-18.9,0-37.9-0.1-56.8c0-1.8,0.6-2.2,2.1-2.2c16.4,0,32.8-0.5,49.2,0.2
	c11.7,0.5,19.9,9.8,21.1,19.7c1.5,12.5,0,25.1,0.8,37.6C807.1,353.5,805.7,353.6,804.6,354.1L804.6,354.1L804.6,354.1z"/>
<path class="st0" d="M357.7,274.8c-3,0-3.5,0.9-3.5,3.6c0.1,21.6,0.1,43.2,0.1,64.8c0,8.8,0,8.5,8.6,8.8c3.9,0.1,4.6-1.4,4.6-4.9
	c-0.1-12.1,0-24.2-0.1-36.2c0-2.5,0.7-3.3,3.2-3.3c8.1,0.1,16.3,0,24.4,0c8.9,0,12.3,3.4,12.9,12.2c0.5,7.3,0.1,14.5,0.1,21.7
	c-0.1,10.5-0.1,10.4,10.4,10.4c2.5,0,3.1-0.6,3.2-3.1c0.3-11-0.5-22-0.9-33.1c-0.3-10.2-8.4-18.8-18.5-19.6c-11.4-1-23.1-0.1-34.5,0
	v-18.7c0,0,0-1.9-1.1-2.2S362.8,274.8,357.7,274.8L357.7,274.8z"/>
<path class="st0" d="M255.8,298.4c-0.1,5.6-0.3,11.2-0.4,16.8c-6.4-3.2-11.9-7.8-17.5-12.1c-9.6-7.5-17.7-16.4-25.1-26
	c-12.6-16.2-15.3-34.3-10.7-53.8c0.8-3.5,1.7-7,3.2-10.7C215.8,245,230.9,274.6,255.8,298.4L255.8,298.4z"/>
<path class="st0" d="M258.9,318.8c0,0,60.3,40.6,62.2,73.3s-15.9,94.2-129.7,103.6c0,0,91.7,13,129.8-58.3s-47.5-119.3-47.5-119.3
	l-8.9-6.9l-9.5,2.1L258.9,318.8L258.9,318.8z"/>
<path class="st0" d="M263.5,318.4c-9.3,0-12.9-5.9-14.6-14.5c-0.2-2.6-0.2-5.9,0.6-9.8c0.2-1.1,0.5-2.2,0.5-2.2
	c0.1-0.4,0.3-1.1,0.6-2c0.2-0.6,0.5-1.4,0.8-2.3c0.5-0.8,0.9-1.5,1.3-2c0.4-0.5,0.7-0.9,0.9-1.1c0.6-0.7,1.2-1.3,1.5-1.5
	c0,0,0.9-0.8,1.9-1.5c3.4-2.2,8.4-3,10.7-3.1c0.3,0,0.6,0,0.9,0h28.5c0.9,0,1.9,0.9,1.9,0.9s0.8,0.6,1.3,1.7
	c0.9,1.9,1.2,6.7-1.4,9.2c-1.3,1.3-4,1.3-9.2,1.3c-6.5,0-13-0.1-19.4-0.1c-4,0-7,1-6.7,5.5c0.3,4.7,2,6.3,7,6.3
	c16.3-0.1,32.5,0,48.8-0.1c4,0,7.9,0.7,11.3,2.7c4.9,2.9,7.7,7.3,7.9,13c0.2,4.6,0.2,9.1,0.1,13.7c-0.1,8.6-8.1,15.3-17,15.4
	c-5.1,0.1-10.2,0.1-15.3,0.2c-3.6,0-7.3,0.1-11,0.1c-13.8-0.1-27.7-0.1-41.5-0.3c-2.2,0-5.3,0.4-5.6-3.2c-0.8-8.8,0.2-11.5,5.5-11.5
	c7.9,0.1,33,0.1,40.1,0.2c0,0,12.4,0.5,20.2-0.2c2.3-0.2,4.2-1.5,4.3-3.7c0.3-7.4-0.2-10-7-10.2c-1.1,0-2.3,0-3.4,0"/>
<path class="st0" d="M690.1,319.1c0-6.5,0-13,0-19.5c0-3.5-0.2-8.2,3.3-9.3c2.6-0.8,1.3-2.8-0.3-4.3c-3.6-3.3-3.9-5.4-0.9-9
	c2.5-3,7.7-3.1,10.6-0.6c4.5,3.9,4.6,6,0.1,10.1c-1.4,1.3-2.2,2-0.3,3.6c2.3,1.9,2.9,4.7,2.9,7.6c0,14.9,0,29.8-0.1,44.6
	c0,1.6-0.4,3-1,4.4c-1.3,2.9-3.4,5.1-6.8,5c-2.6,0-6.1-3.9-6.7-6.9c-1.4-6.3-0.5-12.7-0.8-19C690.1,323.7,690.1,321.4,690.1,319.1
	L690.1,319.1z"/>
<path class="st0" d="M597.1,346.5c0-8.9,0-17.8,0-26.7c0-13.6,9.8-24.4,22.8-25.8c9.1-1,18.4-1.1,27.6,0.5
	c11.1,1.8,17.4,8.5,20.1,19c2.8,10.9,2.3,21.6-5.1,30.8c-5.3,6.6-12.4,9.9-21.1,9.8c-9.1-0.2-18.3,0-27.4,0c-2.3,0-3.1,0.6-3,3
	c0.2,6.6,0.1,13.2,0.3,19.8c0.1,2.9-0.7,4.1-3.8,4.1c-10.4,0-10.4,0.1-10.4-10.4c0-8,0-16,0-24H597.1L597.1,346.5z M628.1,341.8
	c5,0,9.9,0.1,14.8,0c6.6-0.3,11.7-4.4,12.2-10.3c0.4-4.8,0.5-9.7-0.1-14.5c-0.6-4.6-3.2-8.1-8.1-9.5c-8.4-2.3-16.8-1.7-25.2-0.7
	c-6.2,0.7-9,4-10.1,10.2c-1.3,7.7-0.2,15.5-0.7,23.2c-0.1,2,1.5,1.7,2.7,1.7C618.5,341.8,623.3,341.8,628.1,341.8L628.1,341.8z"/>
<path class="st0" d="M127,223.8c0,0-5,60-81,107s-35,106-35,106s29,61,124,57c0,0-134.5-10.5-123.5-98.5c0,0,0.1-33.3,76-80.1
	S127,223.8,127,223.8z"/>
</svg>
